<svg xmlns="http://www.w3.org/2000/svg" viewBox="0 0 800 500" width="800" height="500"><defs><linearGradient id="s" x1="0" y1="0" x2="0" y2="1"><stop offset="0" stop-color="#d0ebff"/><stop offset="1" stop-color="#f1f8ff"/></linearGradient></defs><rect width="800" height="500" fill="url(#s)"/><rect y="470" width="800" height="30" fill="#adb5bd"/><circle cx="90" cy="80" r="42" fill="#ffd34d"/><rect x="140" y="230" width="520" height="240" fill="#dee2e6"/><rect x="180" y="290" width="50" height="40" fill="#74c0fc" opacity=".7"/><rect x="180" y="380" width="50" height="40" fill="#74c0fc" opacity=".7"/><rect x="270" y="290" width="50" height="40" fill="#74c0fc" opacity=".7"/><rect x="270" y="380" width="50" height="40" fill="#74c0fc" opacity=".7"/><rect x="360" y="290" width="50" height="40" fill="#74c0fc" opacity=".7"/><rect x="360" y="380" width="50" height="40" fill="#74c0fc" opacity=".7"/><rect x="450" y="290" width="50" height="40" fill="#74c0fc" opacity=".7"/><rect x="450" y="380" width="50" height="40" fill="#74c0fc" opacity=".7"/><rect x="540" y="290" width="50" height="40" fill="#74c0fc" opacity=".7"/><rect x="540" y="380" width="50" height="40" fill="#74c0fc" opacity=".7"/><rect x="630" y="290" width="50" height="40" fill="#74c0fc" opacity=".7"/><rect x="630" y="380" width="50" height="40" fill="#74c0fc" opacity=".7"/><rect x="130" y="220" width="540" height="14" fill="#868e96"/><rect x="160" y="190" width="90" height="30" fill="#8d5524"/><circle cx="180" cy="185" r="14" fill="#40c057"/><circle cx="208" cy="180" r="16" fill="#2f9e44"/><circle cx="234" cy="186" r="12" fill="#69db7c"/><rect x="280" y="190" width="90" height="30" fill="#8d5524"/><circle cx="300" cy="185" r="14" fill="#40c057"/><circle cx="328" cy="180" r="16" fill="#2f9e44"/><circle cx="354" cy="186" r="12" fill="#69db7c"/><g transform="skewX(-12)"><rect x="420" y="150" width="110" height="50" rx="4" fill="#0b2e59"/><rect x="426.0" y="156.0" width="20.5" height="15.0" fill="#1c4f8c"/><rect x="426.0" y="175.0" width="20.5" height="15.0" fill="#1c4f8c"/><rect x="450.5" y="156.0" width="20.5" height="15.0" fill="#1c4f8c"/><rect x="450.5" y="175.0" width="20.5" height="15.0" fill="#1c4f8c"/><rect x="475.0" y="156.0" width="20.5" height="15.0" fill="#1c4f8c"/><rect x="475.0" y="175.0" width="20.5" height="15.0" fill="#1c4f8c"/><rect x="499.5" y="156.0" width="20.5" height="15.0" fill="#1c4f8c"/><rect x="499.5" y="175.0" width="20.5" height="15.0" fill="#1c4f8c"/></g><rect x="445.0" y="200" width="8" height="40" fill="#6b7a86"/><rect x="600" y="170" width="40" height="50" rx="6" fill="#1971c2"/><g fill="#fff" opacity=".9"><circle cx="560" cy="70" r="22"/><circle cx="586" cy="60" r="28"/><circle cx="616" cy="70" r="22"/><rect x="560" y="70" width="56" height="22"/></g></svg>
