<svg xmlns="http://www.w3.org/2000/svg" viewBox="0 0 800 500" width="800" height="500"><defs><linearGradient id="s" x1="0" y1="0" x2="0" y2="1"><stop offset="0" stop-color="#bfe3ff"/><stop offset="1" stop-color="#e9f6ff"/></linearGradient></defs><rect width="800" height="500" fill="url(#s)"/><rect y="380" width="800" height="120" fill="#7cc242"/><circle cx="680" cy="90" r="42" fill="#ffd34d"/><g fill="#fff" opacity=".9"><circle cx="120" cy="90" r="22"/><circle cx="146" cy="80" r="28"/><circle cx="176" cy="90" r="22"/><rect x="120" y="90" width="56" height="22"/></g><polygon points="80,380 400,180 720,380" fill="#d9480f" opacity=".2"/><rect x="160" y="300" width="480" height="90" fill="#e9ecef"/><rect x="160" y="290" width="480" height="14" fill="#adb5bd"/><g transform="skewX(-12)"><rect x="250" y="200" width="150" height="80" rx="4" fill="#0b2e59"/><rect x="256.0" y="206.0" width="30.5" height="30.0" fill="#1c4f8c"/><rect x="256.0" y="240.0" width="30.5" height="30.0" fill="#1c4f8c"/><rect x="290.5" y="206.0" width="30.5" height="30.0" fill="#1c4f8c"/><rect x="290.5" y="240.0" width="30.5" height="30.0" fill="#1c4f8c"/><rect x="325.0" y="206.0" width="30.5" height="30.0" fill="#1c4f8c"/><rect x="325.0" y="240.0" width="30.5" height="30.0" fill="#1c4f8c"/><rect x="359.5" y="206.0" width="30.5" height="30.0" fill="#1c4f8c"/><rect x="359.5" y="240.0" width="30.5" height="30.0" fill="#1c4f8c"/></g><rect x="295.0" y="280" width="8" height="40" fill="#6b7a86"/><g transform="skewX(-12)"><rect x="430" y="200" width="150" height="80" rx="4" fill="#0b2e59"/><rect x="436.0" y="206.0" width="30.5" height="30.0" fill="#1c4f8c"/><rect x="436.0" y="240.0" width="30.5" height="30.0" fill="#1c4f8c"/><rect x="470.5" y="206.0" width="30.5" height="30.0" fill="#1c4f8c"/><rect x="470.5" y="240.0" width="30.5" height="30.0" fill="#1c4f8c"/><rect x="505.0" y="206.0" width="30.5" height="30.0" fill="#1c4f8c"/><rect x="505.0" y="240.0" width="30.5" height="30.0" fill="#1c4f8c"/><rect x="539.5" y="206.0" width="30.5" height="30.0" fill="#1c4f8c"/><rect x="539.5" y="240.0" width="30.5" height="30.0" fill="#1c4f8c"/></g><rect x="475.0" y="280" width="8" height="40" fill="#6b7a86"/><g transform="translate(200 440) scale(1.0)"><rect x="-15" y="-55" width="12" height="55" rx="5" fill="#26323a"/><rect x="3" y="-55" width="12" height="55" rx="5" fill="#26323a"/><rect x="-22" y="-118" width="44" height="70" rx="16" fill="#0a6b3d"/><rect x="18" y="-112" width="11" height="50" rx="5" fill="#0a6b3d"/><rect x="-29" y="-112" width="11" height="50" rx="5" fill="#0a6b3d"/><circle cx="0" cy="-138" r="20" fill="#8d5524"/><path d="M-20 -140a20 20 0 0 1 40 0c-8-8-26-8-40 0z" fill="#2b1a10"/></g><g transform="translate(560 445) scale(1.0)"><rect x="-15" y="-55" width="12" height="55" rx="5" fill="#26323a"/><rect x="3" y="-55" width="12" height="55" rx="5" fill="#26323a"/><rect x="-22" y="-118" width="44" height="70" rx="16" fill="#0b5394"/><rect x="18" y="-165" width="11" height="55" rx="5" fill="#0b5394" transform="rotate(20 23 -112)"/><rect x="-29" y="-112" width="11" height="50" rx="5" fill="#0b5394"/><circle cx="0" cy="-138" r="20" fill="#f1c27d"/><path d="M-20 -140a20 20 0 0 1 40 0c-8-8-26-8-40 0z" fill="#4a2c17"/></g><g transform="translate(640 450) scale(1.0)"><rect x="-15" y="-55" width="12" height="55" rx="5" fill="#26323a"/><rect x="3" y="-55" width="12" height="55" rx="5" fill="#26323a"/><rect x="-22" y="-118" width="44" height="70" rx="16" fill="#f2b705"/><rect x="18" y="-112" width="11" height="50" rx="5" fill="#f2b705"/><rect x="-29" y="-112" width="11" height="50" rx="5" fill="#f2b705"/><circle cx="0" cy="-138" r="20" fill="#c68642"/><path d="M-20 -140a20 20 0 0 1 40 0c-8-8-26-8-40 0z" fill="#111111"/></g></svg>
